<mxfile host="app.diagrams.net" modified="2022-11-05T01:19:12.443Z" agent="5.0 (Windows NT 10.0; Win64; x64) AppleWebKit/537.36 (KHTML, like Gecko) Chrome/105.0.0.0 Safari/537.36 OPR/91.0.4516.106" etag="QvshWv0yGbrdcwv9Jlhv" version="20.5.1" type="github">
  <diagram id="XsmHa-_QIZKaGGsWOG4r" name="Page-1">
    <mxGraphModel dx="1061" dy="2184" grid="0" gridSize="10" guides="1" tooltips="1" connect="1" arrows="1" fold="1" page="0" pageScale="1" pageWidth="827" pageHeight="1169" math="0" shadow="0">
      <root>
        <mxCell id="0" />
        <mxCell id="1" parent="0" />
        <mxCell id="QF4a82VFvxPP_MXNYJVn-1" value="العملاء" style="swimlane;startSize=48;fontSize=19;" parent="1" vertex="1">
          <mxGeometry x="78" y="-1472" width="211" height="265" as="geometry" />
        </mxCell>
        <mxCell id="CDiKJAmMNScFWGc7ncH5-7" value="اللقب" style="text;html=1;align=center;verticalAlign=middle;resizable=0;points=[];autosize=1;strokeColor=none;fillColor=none;fontSize=19;" parent="QF4a82VFvxPP_MXNYJVn-1" vertex="1">
          <mxGeometry x="151" y="121" width="48" height="35" as="geometry" />
        </mxCell>
        <mxCell id="CDiKJAmMNScFWGc7ncH5-9" value="رقم الهاتف" style="text;html=1;align=center;verticalAlign=middle;resizable=0;points=[];autosize=1;strokeColor=none;fillColor=none;fontSize=19;" parent="QF4a82VFvxPP_MXNYJVn-1" vertex="1">
          <mxGeometry x="122.5" y="147" width="83" height="35" as="geometry" />
        </mxCell>
        <mxCell id="CDiKJAmMNScFWGc7ncH5-10" value="العنوان الشخصي" style="text;html=1;align=center;verticalAlign=middle;resizable=0;points=[];autosize=1;strokeColor=none;fillColor=none;fontSize=19;" parent="QF4a82VFvxPP_MXNYJVn-1" vertex="1">
          <mxGeometry x="85" y="182" width="121" height="35" as="geometry" />
        </mxCell>
        <mxCell id="CDiKJAmMNScFWGc7ncH5-16" value="البريد الالكتروني" style="text;html=1;align=center;verticalAlign=middle;resizable=0;points=[];autosize=1;strokeColor=none;fillColor=none;fontSize=19;" parent="QF4a82VFvxPP_MXNYJVn-1" vertex="1">
          <mxGeometry x="86" y="217" width="120" height="35" as="geometry" />
        </mxCell>
        <mxCell id="CDiKJAmMNScFWGc7ncH5-6" value="الاسم" style="text;html=1;align=center;verticalAlign=middle;resizable=0;points=[];autosize=1;strokeColor=none;fillColor=none;fontSize=19;" parent="QF4a82VFvxPP_MXNYJVn-1" vertex="1">
          <mxGeometry x="150" y="92" width="49" height="35" as="geometry" />
        </mxCell>
        <mxCell id="QF4a82VFvxPP_MXNYJVn-3" value="مخزن المكتبة" style="swimlane;startSize=42;fontStyle=1;verticalAlign=middle;fontSize=19;" parent="1" vertex="1">
          <mxGeometry x="684" y="-1480" width="214" height="273" as="geometry">
            <mxRectangle x="629" y="251" width="84" height="44" as="alternateBounds" />
          </mxGeometry>
        </mxCell>
        <mxCell id="CDiKJAmMNScFWGc7ncH5-1" value="&lt;span style=&quot;background-color: initial; font-size: 19px;&quot;&gt;&lt;i&gt;&lt;b&gt;&lt;u&gt;رقم الكتاب&lt;/u&gt;&lt;/b&gt;&lt;/i&gt;&lt;/span&gt;" style="text;html=1;align=right;verticalAlign=middle;resizable=0;points=[];autosize=1;strokeColor=#6F0000;fillColor=#a20025;fontSize=19;fontColor=#ffffff;" parent="QF4a82VFvxPP_MXNYJVn-3" vertex="1">
          <mxGeometry x="108" y="48" width="82" height="35" as="geometry" />
        </mxCell>
        <mxCell id="CDiKJAmMNScFWGc7ncH5-2" value="نوع المجلد" style="text;html=1;align=center;verticalAlign=middle;resizable=0;points=[];autosize=1;strokeColor=none;fillColor=none;fontSize=19;" parent="QF4a82VFvxPP_MXNYJVn-3" vertex="1">
          <mxGeometry x="116" y="76" width="82" height="35" as="geometry" />
        </mxCell>
        <mxCell id="CDiKJAmMNScFWGc7ncH5-3" value="المؤلف" style="text;html=1;align=center;verticalAlign=middle;resizable=0;points=[];autosize=1;strokeColor=none;fillColor=none;fontSize=19;" parent="QF4a82VFvxPP_MXNYJVn-3" vertex="1">
          <mxGeometry x="130" y="109" width="60" height="35" as="geometry" />
        </mxCell>
        <mxCell id="CDiKJAmMNScFWGc7ncH5-5" value="رقم الايصال" style="text;html=1;align=center;verticalAlign=middle;resizable=0;points=[];autosize=1;strokeColor=none;fillColor=none;fontSize=19;" parent="QF4a82VFvxPP_MXNYJVn-3" vertex="1">
          <mxGeometry x="104" y="143" width="93" height="35" as="geometry" />
        </mxCell>
        <mxCell id="CDiKJAmMNScFWGc7ncH5-18" value="الوصل" style="ellipse;whiteSpace=wrap;html=1;fontSize=19;" parent="1" vertex="1">
          <mxGeometry x="725" y="-1110" width="120" height="80" as="geometry" />
        </mxCell>
        <mxCell id="CDiKJAmMNScFWGc7ncH5-19" value="" style="endArrow=none;html=1;rounded=0;fontSize=19;entryX=0.5;entryY=1;entryDx=0;entryDy=0;" parent="1" target="QF4a82VFvxPP_MXNYJVn-3" edge="1">
          <mxGeometry width="50" height="50" relative="1" as="geometry">
            <mxPoint x="791" y="-1112" as="sourcePoint" />
            <mxPoint x="803" y="-1207" as="targetPoint" />
            <Array as="points" />
          </mxGeometry>
        </mxCell>
        <mxCell id="CDiKJAmMNScFWGc7ncH5-20" value="ايصال الكتب" style="swimlane;fontSize=19;startSize=55;" parent="1" vertex="1">
          <mxGeometry x="685" y="-946" width="202" height="234" as="geometry" />
        </mxCell>
        <mxCell id="CDiKJAmMNScFWGc7ncH5-29" value="&lt;b&gt;&lt;font size=&quot;1&quot; style=&quot;&quot;&gt;&lt;u style=&quot;font-size: 19px;&quot;&gt;رقم الايصال&amp;nbsp;&lt;/u&gt;&lt;/font&gt;&lt;/b&gt;" style="text;html=1;align=center;verticalAlign=middle;resizable=0;points=[];autosize=1;strokeColor=#6F0000;fillColor=#a20025;fontSize=19;fontColor=#ffffff;" parent="CDiKJAmMNScFWGc7ncH5-20" vertex="1">
          <mxGeometry x="105" y="67.5" width="96" height="35" as="geometry" />
        </mxCell>
        <mxCell id="CDiKJAmMNScFWGc7ncH5-21" value="طلبات العملاء" style="swimlane;fontSize=19;startSize=52;" parent="1" vertex="1">
          <mxGeometry x="84.5" y="-961" width="200" height="249" as="geometry" />
        </mxCell>
        <mxCell id="CDiKJAmMNScFWGc7ncH5-37" value="نوع الطلب" style="text;html=1;align=center;verticalAlign=middle;resizable=0;points=[];autosize=1;strokeColor=none;fillColor=none;fontSize=19;" parent="CDiKJAmMNScFWGc7ncH5-21" vertex="1">
          <mxGeometry x="103.5" y="104" width="83" height="35" as="geometry" />
        </mxCell>
        <mxCell id="CDiKJAmMNScFWGc7ncH5-38" value="كمية الطلب" style="text;html=1;align=center;verticalAlign=middle;resizable=0;points=[];autosize=1;strokeColor=none;fillColor=none;fontSize=19;" parent="CDiKJAmMNScFWGc7ncH5-21" vertex="1">
          <mxGeometry x="99.5" y="152" width="86" height="35" as="geometry" />
        </mxCell>
        <mxCell id="CDiKJAmMNScFWGc7ncH5-36" value="&lt;u&gt;&lt;b&gt;&lt;font style=&quot;font-size: 20px;&quot;&gt;رقم الطلب&lt;/font&gt;&lt;/b&gt;&lt;/u&gt;" style="text;html=1;align=center;verticalAlign=middle;resizable=0;points=[];autosize=1;strokeColor=#6F0000;fillColor=#a20025;fontSize=19;fontColor=#ffffff;" parent="CDiKJAmMNScFWGc7ncH5-21" vertex="1">
          <mxGeometry x="104" y="56" width="83" height="37" as="geometry" />
        </mxCell>
        <mxCell id="CDiKJAmMNScFWGc7ncH5-22" value="يستقبل" style="ellipse;whiteSpace=wrap;html=1;fontSize=19;" parent="1" vertex="1">
          <mxGeometry x="124.5" y="-1126" width="120" height="80" as="geometry" />
        </mxCell>
        <mxCell id="CDiKJAmMNScFWGc7ncH5-23" value="" style="endArrow=none;html=1;rounded=0;fontSize=19;entryX=0.5;entryY=1;entryDx=0;entryDy=0;exitX=0.5;exitY=0;exitDx=0;exitDy=0;" parent="1" source="CDiKJAmMNScFWGc7ncH5-22" target="QF4a82VFvxPP_MXNYJVn-1" edge="1">
          <mxGeometry width="50" height="50" relative="1" as="geometry">
            <mxPoint x="406" y="-1155" as="sourcePoint" />
            <mxPoint x="456" y="-1205" as="targetPoint" />
          </mxGeometry>
        </mxCell>
        <mxCell id="CDiKJAmMNScFWGc7ncH5-24" value="" style="endArrow=none;html=1;rounded=0;fontSize=19;entryX=0.5;entryY=1;entryDx=0;entryDy=0;exitX=0.5;exitY=0;exitDx=0;exitDy=0;" parent="1" source="CDiKJAmMNScFWGc7ncH5-21" target="CDiKJAmMNScFWGc7ncH5-22" edge="1">
          <mxGeometry width="50" height="50" relative="1" as="geometry">
            <mxPoint x="406" y="-955" as="sourcePoint" />
            <mxPoint x="456" y="-1005" as="targetPoint" />
          </mxGeometry>
        </mxCell>
        <mxCell id="CDiKJAmMNScFWGc7ncH5-25" value="" style="endArrow=none;html=1;rounded=0;fontSize=19;entryX=0.5;entryY=1;entryDx=0;entryDy=0;" parent="1" target="CDiKJAmMNScFWGc7ncH5-18" edge="1">
          <mxGeometry width="50" height="50" relative="1" as="geometry">
            <mxPoint x="785" y="-947" as="sourcePoint" />
            <mxPoint x="785" y="-1025" as="targetPoint" />
          </mxGeometry>
        </mxCell>
        <mxCell id="CDiKJAmMNScFWGc7ncH5-26" value="الطلب" style="ellipse;whiteSpace=wrap;html=1;fontSize=19;" parent="1" vertex="1">
          <mxGeometry x="415" y="-876.5" width="120" height="80" as="geometry" />
        </mxCell>
        <mxCell id="CDiKJAmMNScFWGc7ncH5-27" value="" style="endArrow=none;html=1;rounded=0;fontSize=19;exitX=1;exitY=0.5;exitDx=0;exitDy=0;" parent="1" source="CDiKJAmMNScFWGc7ncH5-21" edge="1">
          <mxGeometry width="50" height="50" relative="1" as="geometry">
            <mxPoint x="406" y="-955" as="sourcePoint" />
            <mxPoint x="412" y="-834" as="targetPoint" />
          </mxGeometry>
        </mxCell>
        <mxCell id="CDiKJAmMNScFWGc7ncH5-28" value="" style="endArrow=none;html=1;rounded=0;fontSize=19;exitX=1;exitY=0.5;exitDx=0;exitDy=0;" parent="1" source="CDiKJAmMNScFWGc7ncH5-26" edge="1">
          <mxGeometry width="50" height="50" relative="1" as="geometry">
            <mxPoint x="406" y="-955" as="sourcePoint" />
            <mxPoint x="689" y="-833" as="targetPoint" />
          </mxGeometry>
        </mxCell>
        <mxCell id="CDiKJAmMNScFWGc7ncH5-30" value="الكمية" style="text;html=1;align=center;verticalAlign=middle;resizable=0;points=[];autosize=1;strokeColor=none;fillColor=none;fontSize=19;" parent="1" vertex="1">
          <mxGeometry x="809" y="-848" width="53" height="35" as="geometry" />
        </mxCell>
        <mxCell id="CDiKJAmMNScFWGc7ncH5-31" value="الرمز" style="text;html=1;align=center;verticalAlign=middle;resizable=0;points=[];autosize=1;strokeColor=none;fillColor=none;fontSize=19;" parent="1" vertex="1">
          <mxGeometry x="808" y="-812" width="52" height="35" as="geometry" />
        </mxCell>
        <mxCell id="CDiKJAmMNScFWGc7ncH5-32" value="رقم الطالب" style="text;html=1;align=center;verticalAlign=middle;resizable=0;points=[];autosize=1;strokeColor=#005700;fillColor=#008a00;fontSize=19;fontColor=#ffffff;" parent="1" vertex="1">
          <mxGeometry x="801" y="-780" width="85" height="35" as="geometry" />
        </mxCell>
        <mxCell id="CDiKJAmMNScFWGc7ncH5-33" value="&lt;b&gt;&lt;i&gt;رقم العميل&lt;/i&gt;&lt;/b&gt;" style="text;html=1;align=center;verticalAlign=middle;resizable=0;points=[];autosize=1;strokeColor=#6F0000;fillColor=#a20025;fontSize=19;fontStyle=4;fontColor=#ffffff;" parent="1" vertex="1">
          <mxGeometry x="196" y="-1421" width="81" height="35" as="geometry" />
        </mxCell>
        <mxCell id="CDiKJAmMNScFWGc7ncH5-39" value="1.1" style="text;html=1;align=center;verticalAlign=middle;resizable=0;points=[];autosize=1;strokeColor=none;fillColor=none;fontSize=20;" parent="1" vertex="1">
          <mxGeometry x="637" y="-832" width="46" height="36" as="geometry" />
        </mxCell>
        <mxCell id="CDiKJAmMNScFWGc7ncH5-40" value="1.N" style="text;html=1;align=center;verticalAlign=middle;resizable=0;points=[];autosize=1;strokeColor=none;fillColor=none;fontSize=20;" parent="1" vertex="1">
          <mxGeometry x="287.5" y="-826" width="49" height="36" as="geometry" />
        </mxCell>
        <mxCell id="CDiKJAmMNScFWGc7ncH5-41" value="1.1" style="text;html=1;align=center;verticalAlign=middle;resizable=0;points=[];autosize=1;strokeColor=none;fillColor=none;fontSize=20;" parent="1" vertex="1">
          <mxGeometry x="187" y="-995" width="46" height="36" as="geometry" />
        </mxCell>
        <mxCell id="CDiKJAmMNScFWGc7ncH5-42" value="1.N" style="text;html=1;align=center;verticalAlign=middle;resizable=0;points=[];autosize=1;strokeColor=none;fillColor=none;fontSize=20;" parent="1" vertex="1">
          <mxGeometry x="183" y="-1200" width="49" height="36" as="geometry" />
        </mxCell>
        <mxCell id="CDiKJAmMNScFWGc7ncH5-43" value="1.1" style="text;html=1;align=center;verticalAlign=middle;resizable=0;points=[];autosize=1;strokeColor=none;fillColor=none;fontSize=20;" parent="1" vertex="1">
          <mxGeometry x="790" y="-1207" width="46" height="36" as="geometry" />
        </mxCell>
        <mxCell id="CDiKJAmMNScFWGc7ncH5-44" value="1.N" style="text;html=1;align=center;verticalAlign=middle;resizable=0;points=[];autosize=1;strokeColor=none;fillColor=none;fontSize=20;" parent="1" vertex="1">
          <mxGeometry x="783" y="-984" width="49" height="36" as="geometry" />
        </mxCell>
        <mxCell id="CDiKJAmMNScFWGc7ncH5-45" value="&lt;font style=&quot;font-size: 26px;&quot;&gt;MCD&lt;/font&gt;" style="text;html=1;align=center;verticalAlign=middle;resizable=0;points=[];autosize=1;strokeColor=#006EAF;fillColor=#1ba1e2;fontSize=20;fontColor=#ffffff;fontStyle=7" parent="1" vertex="1">
          <mxGeometry x="436.5" y="-1579" width="77" height="43" as="geometry" />
        </mxCell>
      </root>
    </mxGraphModel>
  </diagram>
</mxfile>
